<svg xmlns="http://www.w3.org/2000/svg" fill="none" viewBox="0 -0.5 25 25"><path fill="#000" d="M12.5 11.75a.75.75 0 0 0 0-1.5v1.5Zm-7-1.5a.75.75 0 0 0 0 1.5v-1.5Zm7 0a.75.75 0 0 0 0 1.5v-1.5Zm7 1.5a.75.75 0 0 0 0-1.5v1.5ZM11.75 11a.75.75 0 0 0 1.5 0h-1.5Zm1.5-6a.75.75 0 0 0-1.5 0h1.5Zm-7 6a.75.75 0 0 0-1.5 0h1.5Zm14 0a.75.75 0 0 0-1.5 0h1.5Zm-15.5 0a.75.75 0 0 0 1.5 0h-1.5Zm7.75-5.25a.75.75 0 0 0 0-1.5v1.5ZM18.75 11a.75.75 0 0 0 1.5 0h-1.5ZM12.5 4.25a.75.75 0 0 0 0 1.5v-1.5Zm0 6h-7v1.5h7v-1.5Zm0 1.5h7v-1.5h-7v1.5Zm.75-.75V5h-1.5v6h1.5Zm-8.5 0v4h1.5v-4h-1.5Zm0 4a4.75 4.75 0 0 0 4.75 4.75v-1.5A3.25 3.25 0 0 1 6.25 15h-1.5Zm4.75 4.75h6v-1.5h-6v1.5Zm6 0A4.75 4.75 0 0 0 20.25 15h-1.5a3.25 3.25 0 0 1-3.25 3.25v1.5ZM20.25 15v-4h-1.5v4h1.5Zm-14-4V9h-1.5v2h1.5Zm0-2A3.25 3.25 0 0 1 9.5 5.75v-1.5A4.75 4.75 0 0 0 4.75 9h1.5ZM9.5 5.75h3v-1.5h-3v1.5ZM20.25 11V9h-1.5v2h1.5Zm0-2a4.75 4.75 0 0 0-4.75-4.75v1.5A3.25 3.25 0 0 1 18.75 9h1.5ZM15.5 4.25h-3v1.5h3v-1.5Z"/></svg>