<svg width="14" height="14" viewBox="0 0 14 14" fill="none" xmlns="http://www.w3.org/2000/svg">
<g id="Car">
<path id="Circle 4" d="M7 1C3.688 1 1 3.688 1 7C1 10.312 3.688 13 7 13C10.312 13 13 10.312 13 7C13 3.688 10.318 1 7 1Z" fill="#90A3BF"/>
<rect id="Circle 3" x="2" y="2" width="10" height="10" rx="5" fill="white"/>
<path id="Circle 2" d="M7 3C4.792 3 3 4.792 3 7C3 9.208 4.792 11 7 11C9.208 11 11 9.208 11 7C11 4.792 9.212 3 7 3Z" fill="#90A3BF"/>
<rect id="Rectangle 1" x="8" y="6" width="4" height="2" fill="#90A3BF"/>
<rect id="Rectangle 2" x="2" y="6" width="4" height="2" fill="#90A3BF"/>
<rect id="Rectangle 3" x="6" y="8" width="2" height="4" fill="#90A3BF"/>
<rect id="Circle 1" x="4" y="4" width="6" height="6" rx="3" fill="white"/>
</g>
</svg>
