<svg viewBox="0 0 12 10" fill="none" xmlns="http://www.w3.org/2000/svg">
<g id="Layer">
<path id="Vector" fill-rule="evenodd" clip-rule="evenodd" d="M5.50008 0.595003C5.53462 0.485482 5.60317 0.389823 5.69579 0.32192C5.7884 0.254017 5.90024 0.217407 6.01508 0.217407C6.12992 0.217407 6.24177 0.254017 6.33438 0.32192C6.42699 0.389823 6.49555 0.485482 6.53008 0.595003L7.46008 3.455H10.4601C10.579 3.45051 10.6962 3.48507 10.7936 3.55342C10.8911 3.62177 10.9635 3.72014 10.9997 3.83351C11.036 3.94688 11.0342 4.069 10.9945 4.18123C10.9549 4.29346 10.8795 4.38961 10.7801 4.455L8.34508 6.22L9.27508 9.085C9.31186 9.19414 9.31279 9.31217 9.27773 9.42187C9.24267 9.53156 9.17345 9.62718 9.0802 9.69475C8.98694 9.76232 8.87452 9.7983 8.75936 9.79745C8.6442 9.7966 8.53233 9.75895 8.44008 9.69L6.00008 7.905L3.56508 9.675C3.47284 9.74395 3.36097 9.7816 3.2458 9.78245C3.13064 9.7833 3.01823 9.74732 2.92497 9.67975C2.83171 9.61218 2.7625 9.51656 2.72744 9.40687C2.69238 9.29717 2.6933 9.17914 2.73008 9.07L3.66008 6.205L1.22508 4.44C1.12562 4.37461 1.05031 4.27846 1.01064 4.16623C0.970978 4.054 0.969144 3.93188 1.00542 3.81851C1.0417 3.70514 1.11409 3.60677 1.21154 3.53842C1.30899 3.47007 1.42614 3.43551 1.54508 3.44H4.54508L5.50008 0.595003Z" fill="#FBAD39"/>
</g>
</svg>
